<?xml version="1.0" standalone="no"?>
<!DOCTYPE svg PUBLIC "-//W3C//DTD SVG 20010904//EN"
 "http://www.w3.org/TR/2001/REC-SVG-20010904/DTD/svg10.dtd">
<svg version="1.0" xmlns="http://www.w3.org/2000/svg"
 width="400.000000pt" height="400.000000pt" viewBox="0 0 400.000000 400.000000"
 preserveAspectRatio="xMidYMid meet">
<metadata>
Created by potrace 1.14, written by Peter Selinger 2001-2017
</metadata>
<g transform="translate(0.000000,400.000000) scale(0.100000,-0.100000)"
fill="#000000" stroke="none">
<path d="M0 2000 l0 -2000 2000 0 2000 0 0 485 0 484 -31 -6 c-27 -5 -30 -3
-27 13 4 19 10 21 41 9 16 -7 17 69 17 1504 l0 1511 -2000 0 -2000 0 0 -2000z
m700 1781 c0 -9 -24 -21 -41 -21 -5 0 -9 7 -9 15 0 9 9 15 25 15 14 0 25 -4
25 -9z m-12 -57 c15 -15 14 -18 -3 -30 -11 -9 -14 -14 -6 -14 8 0 11 -6 7 -15
-3 -8 -1 -15 4 -15 6 0 8 -16 4 -40 -5 -27 -3 -40 5 -40 8 0 9 -5 1 -19 -13
-25 -13 -34 0 -26 6 3 10 1 10 -4 0 -6 -4 -12 -10 -12 -53 -7 -45 -13 25 -19
40 -4 -34 -6 -170 -6 -224 0 -229 1 -75 6 l165 5 3 110 c3 141 7 152 40 119z
m1472 -34 c12 -7 8 -10 -15 -10 -52 0 -118 -40 -140 -85 -12 -24 -28 -41 -40
-43 -47 -7 -108 -28 -112 -39 -8 -20 -23 -15 -23 7 0 48 69 128 129 152 66 25
175 35 201 18z m-427 -101 c-8 -29 -13 -23 -13 14 0 22 3 28 9 18 5 -7 6 -22
4 -32z m-258 6 c0 -14 -6 -25 -12 -25 -14 0 -16 10 -7 34 9 24 19 19 19 -9z
m208 -5 c4 -15 0 -20 -14 -20 -17 0 -18 3 -9 20 6 11 12 20 14 20 2 0 6 -9 9
-20z m823 -17 c-11 -11 -19 6 -11 24 8 17 8 17 12 0 3 -10 2 -21 -1 -24z
m-1279 1 c-3 -3 -12 -4 -19 -1 -8 3 -5 6 6 6 11 1 17 -2 13 -5z m70 0 c-3 -3
-12 -4 -19 -1 -8 3 -5 6 6 6 11 1 17 -2 13 -5z m246 -1 c-7 -2 -19 -2 -25 0
-7 3 -2 5 12 5 14 0 19 -2 13 -5z m74 1 c-3 -3 -12 -4 -19 -1 -8 3 -5 6 6 6
11 1 17 -2 13 -5z m520 -147 c3 9 10 10 23 3 10 -5 43 -11 72 -12 29 -1 61 -7
71 -13 10 -7 32 -11 49 -9 17 2 37 -1 45 -8 11 -9 16 -9 23 1 6 10 9 8 15 -7
6 -22 6 -22 27 -2 24 22 38 19 18 -5 -15 -18 -10 -18 24 -5 24 9 25 8 16 -16
-6 -14 -10 -27 -10 -29 0 -1 17 1 37 6 39 8 58 4 29 -7 -18 -7 -22 -34 -5 -34
5 0 8 4 5 9 -4 5 7 4 23 -2 l29 -11 -22 -18 c-21 -18 -20 -18 34 -12 60 6 116
33 114 55 -1 8 -5 26 -9 41 -6 23 -3 27 17 30 58 9 138 -32 138 -72 0 -9 -18
-27 -39 -40 -21 -14 -37 -28 -35 -31 2 -4 -11 -13 -28 -20 -35 -14 -85 -14
-103 1 -17 14 -26 0 -14 -21 8 -16 6 -19 -10 -19 -11 0 -26 -6 -33 -14 -11
-10 -19 -11 -33 -4 -12 7 -16 7 -11 0 7 -12 -22 -25 -37 -15 -7 4 -7 0 1 -9
11 -14 10 -18 -8 -28 -12 -6 -19 -14 -16 -17 3 -3 12 -1 20 6 18 15 56 23 56
12 0 -10 -76 -44 -102 -47 -21 -2 -22 8 -8 39 10 20 9 20 -6 -1 l-17 -24 -12
34 c-8 25 -8 45 2 83 15 59 16 75 3 55 -8 -12 -10 -12 -16 3 -3 9 -10 14 -15
12 -5 -3 -19 1 -31 9 -15 10 -28 12 -38 6 -9 -5 -19 -5 -27 2 -7 6 -13 7 -13
2 1 -14 26 -44 33 -39 4 3 4 2 1 -2 -3 -5 -10 -9 -15 -9 -5 -1 -13 -2 -19 -3
-5 0 -7 -8 -4 -16 8 -20 2 -19 -27 6 l-24 20 -9 -20 c-11 -25 -21 -25 -61 -2
-18 11 -32 29 -37 49 -21 85 -26 97 -36 95 -7 -2 -12 8 -12 22 0 13 -13 40
-30 58 -16 19 -30 39 -30 43 1 5 17 -9 36 -31 22 -25 38 -35 41 -28z m-212
-117 l40 -18 -26 -10 c-18 -7 -27 -18 -27 -34 0 -13 -4 -40 -10 -60 -11 -43
-10 -43 46 -24 36 13 42 13 55 -2 8 -9 13 -22 10 -28 -2 -7 9 -15 24 -19 15
-4 22 -10 15 -12 -6 -3 -10 -9 -6 -14 3 -5 -25 -9 -64 -9 -38 0 -84 -5 -103
-11 -19 -6 -40 -13 -48 -15 -10 -3 -11 -7 -1 -19 10 -12 7 -13 -21 -5 -36 11
-52 4 -29 -10 11 -7 8 -10 -13 -10 -16 0 -26 -4 -22 -10 3 -5 -3 -10 -14 -10
-12 0 -21 -4 -21 -9 0 -13 -53 -8 -67 5 -7 7 -11 13 -10 15 1 2 0 3 -3 1 -3
-2 -5 -7 -5 -10 0 -4 -23 -34 -50 -67 -28 -33 -59 -79 -69 -102 -15 -34 -24
-42 -42 -41 -12 1 -21 6 -18 10 2 4 -14 8 -37 10 -25 2 -44 9 -47 17 -3 9 0
11 9 6 8 -5 11 -5 7 -1 -3 4 -9 7 -12 7 -4 -1 -27 14 -53 34 -25 19 -50 35
-54 35 -5 0 -11 11 -15 25 -3 14 -14 30 -23 36 -13 9 -13 9 4 3 25 -9 85 -16
67 -8 -19 9 -4 24 24 24 26 0 58 23 47 34 -4 3 1 6 10 6 8 0 22 6 29 13 7 7
26 18 41 25 15 6 25 16 22 22 -3 5 10 12 30 16 25 4 35 11 35 25 0 14 7 19 25
19 14 0 25 4 25 9 0 5 16 15 35 22 23 9 31 16 22 21 -9 6 -9 8 1 8 7 0 20 7
28 15 9 8 27 15 40 15 14 0 22 4 19 10 -3 6 1 10 10 10 15 0 27 7 64 41 16 14
66 37 81 37 3 0 23 -8 45 -18z m-1402 -67 c-7 -2 -21 -2 -30 0 -10 3 -4 5 12
5 17 0 24 -2 18 -5z m3005 0 c-10 -2 -28 -2 -40 0 -13 2 -5 4 17 4 22 1 32 -1
23 -4z m-2911 -49 c-3 -3 -12 -4 -19 -1 -8 3 -5 6 6 6 11 1 17 -2 13 -5z
m2078 -35 c10 -15 -1 -22 -24 -14 -12 3 -19 11 -16 16 8 12 32 11 40 -2z m-70
-90 c-4 -6 -1 -9 6 -8 25 4 71 -13 61 -23 -6 -6 -25 -5 -51 2 -30 8 -46 8 -62
0 -36 -20 -43 -5 -8 18 36 23 65 29 54 11z m-2115 -29 c0 -5 -5 -10 -11 -10
-5 0 -7 5 -4 10 3 6 8 10 11 10 2 0 4 -4 4 -10z m2234 -31 c20 -12 36 -25 36
-30 0 -5 9 -18 20 -29 12 -12 15 -20 8 -20 -16 0 -47 19 -33 21 20 1 -31 18
-58 18 -16 1 -26 5 -22 10 3 5 1 12 -4 16 -11 6 -3 35 9 35 5 0 25 -9 44 -21z
m-2104 1 c0 -5 -14 -10 -31 -10 -17 0 -28 4 -24 10 3 6 17 10 31 10 13 0 24
-4 24 -10z m70 -44 c8 -2 -79 -3 -195 -3 -138 1 -179 3 -120 6 86 6 284 3 315
-3z m75 4 c3 -5 -1 -10 -10 -10 -9 0 -13 5 -10 10 3 6 8 10 10 10 2 0 7 -4 10
-10z m405 -20 c22 -11 40 -22 40 -24 0 -3 3 -12 7 -22 5 -13 3 -15 -8 -9 -8 5
-44 10 -81 12 -56 2 -66 0 -62 -12 4 -8 18 -15 33 -16 14 0 35 -4 46 -8 18 -7
17 -9 -10 -24 -17 -9 -26 -16 -21 -17 6 0 1 -7 -10 -15 -11 -8 -42 -14 -74
-15 -30 0 -76 -8 -102 -18 -80 -30 -77 -45 3 -16 24 8 69 14 99 13 30 -1 65 3
77 9 29 16 44 15 37 -2 -3 -8 -18 -16 -35 -20 -40 -8 -36 -29 8 -43 39 -12 63
-4 63 22 0 16 37 49 43 38 2 -4 -6 -28 -18 -52 -12 -24 -24 -39 -26 -33 -3 7
-30 0 -73 -18 -38 -16 -72 -28 -74 -25 -3 3 18 14 46 26 46 19 61 39 30 39 -6
0 -8 -3 -4 -7 4 -4 -10 -13 -31 -19 -72 -24 -118 -43 -101 -44 9 0 20 -9 23
-20 4 -11 12 -18 18 -14 7 3 -1 -6 -16 -20 -27 -25 -55 -27 -40 -3 4 7 -2 5
-12 -3 -11 -9 -16 -10 -11 -2 10 16 -13 16 -33 -1 -23 -19 -71 -38 -71 -28 0
4 11 14 25 21 18 10 22 17 14 26 -13 16 42 58 96 73 22 6 49 18 60 26 19 15
18 15 -10 9 -16 -4 -56 -15 -87 -25 -72 -24 -95 -25 -78 -4 16 19 1 19 -24 0
-26 -19 -42 -19 -26 0 7 8 9 15 6 15 -16 0 -87 -42 -92 -55 -6 -15 -84 -69
-84 -58 0 11 43 53 55 53 6 0 24 14 40 30 32 34 23 40 -15 10 -44 -34 -44 -21
0 15 23 19 46 35 51 35 5 0 9 4 9 10 0 5 -20 1 -45 -10 -57 -24 -58 -12 -2 16
23 12 41 26 40 33 -2 6 4 11 12 11 8 0 26 5 40 12 18 8 22 14 13 20 -9 5 -8 8
5 8 10 0 16 4 13 9 -3 5 18 17 46 27 54 20 71 39 41 47 -10 3 7 5 37 6 30 1
78 6 105 10 28 5 60 5 73 0 31 -12 28 3 -5 23 -39 24 -21 22 27 -2z m673 -10
c21 -12 56 -20 82 -20 26 0 61 8 82 20 50 27 86 25 131 -5 20 -14 46 -25 57
-25 11 0 45 -12 75 -26 44 -21 74 -27 145 -30 106 -4 188 -21 178 -37 -4 -6 0
-8 10 -4 8 3 32 -3 52 -13 l37 -19 -28 -6 c-16 -3 -56 -12 -89 -20 -133 -32
-225 -35 -244 -8 -3 5 -28 25 -56 44 -27 18 -56 42 -63 52 -8 10 -25 30 -38
45 -24 27 -24 27 -39 7 -15 -19 -16 -19 -59 4 -23 13 -49 22 -56 19 -8 -2 -21
-26 -29 -53 -12 -38 -26 -57 -61 -82 -25 -18 -50 -37 -56 -43 -7 -5 -14 -6
-17 -4 -9 9 -97 12 -92 4 3 -5 -9 -13 -25 -19 -17 -5 -30 -15 -30 -21 0 -6
-16 -18 -35 -27 -19 -9 -32 -20 -29 -25 3 -4 3 -8 1 -8 -8 0 -67 32 -67 36 0
3 5 2 10 -1 6 -3 10 -4 10 0 0 13 -46 22 -59 11 -11 -8 -13 -8 -8 1 4 6 1 16
-7 20 -13 7 -14 15 -2 58 8 28 15 56 17 64 5 17 35 57 65 85 47 44 177 58 237
26z m1034 -106 c-3 -3 -12 -4 -19 -1 -8 3 -5 6 6 6 11 1 17 -2 13 -5z m48 -92
c30 -5 65 -24 59 -33 -2 -4 15 -14 38 -20 l43 -13 -35 -7 -35 -6 33 -2 c17 0
32 -5 32 -11 0 -13 -17 -13 -82 2 -65 14 -74 21 -81 57 -3 16 -9 42 -12 57
l-7 29 14 -25 c7 -14 22 -26 33 -28z m65 8 c0 -5 -5 -10 -11 -10 -5 0 -7 5 -4
10 3 6 8 10 11 10 2 0 4 -4 4 -10z m-1726 -34 c-3 -9 -10 -16 -15 -16 -6 0 -5
9 1 21 13 24 24 20 14 -5z m832 8 c-3 -9 -6 -21 -6 -27 0 -6 -8 -3 -17 6 -16
16 -16 19 -3 27 22 14 33 12 26 -6z m84 -38 c0 -2 -7 -7 -16 -10 -8 -3 -12 -2
-9 4 6 10 25 14 25 6z m-119 -46 c31 -17 69 -30 90 -30 36 0 92 -29 57 -30
-17 0 -15 -33 5 -57 15 -20 24 -15 30 16 6 27 9 29 42 26 44 -4 105 -48 105
-76 0 -16 -5 -14 -30 13 -27 31 -29 31 -30 11 0 -17 -9 -25 -37 -32 -57 -16
-66 -14 -110 24 -23 19 -46 35 -53 35 -14 0 -40 -59 -33 -77 9 -24 -6 -13 -21
15 -10 17 -15 21 -16 11 0 -23 40 -71 55 -65 7 2 24 -2 38 -9 23 -12 29 -11
53 8 l27 21 -6 -36 c-5 -33 -3 -37 24 -48 16 -7 29 -16 29 -20 0 -13 -62 -20
-122 -14 -32 3 -58 1 -58 -3 0 -4 35 -25 78 -46 42 -20 66 -35 52 -32 -73 15
-214 56 -241 71 -17 8 -28 11 -24 5 8 -14 107 -64 158 -81 21 -6 36 -14 33
-17 -11 -11 -176 48 -207 74 l-32 27 18 -34 c16 -31 16 -36 1 -67 -9 -18 -20
-33 -25 -33 -16 0 -52 125 -54 188 -1 56 1 63 37 106 38 47 69 70 79 60 3 -3
19 4 36 17 22 16 27 25 19 31 -9 5 -4 8 12 9 23 1 23 2 -5 9 l-30 8 30 2 c30
2 30 2 -7 12 -21 6 -38 16 -38 24 0 20 10 18 71 -16z m-888 3 c-9 -24 -21 -34
-65 -60 -36 -21 -37 -21 -43 -2 -7 20 2 42 13 35 4 -2 27 7 52 20 25 12 46 23
47 24 1 0 -1 -8 -4 -17z m63 -28 c-22 -34 -38 -32 -25 2 l10 27 -22 -19 c-21
-20 -21 -20 -18 0 3 13 15 22 34 25 36 7 42 -3 21 -35z m1719 26 c-3 -5 3 -12
12 -14 11 -3 8 -5 -9 -6 -27 -1 -35 8 -21 22 10 10 25 8 18 -2z m-2125 -6 c0
-2 -15 -12 -32 -21 -50 -25 -139 -104 -132 -116 4 -7 2 -8 -5 -4 -9 6 -9 11 1
23 7 8 17 24 23 36 5 11 39 35 75 53 73 37 70 36 70 29z m1645 -4 c7 -13 -23
-41 -43 -41 -9 0 -24 5 -32 10 -13 8 -12 10 3 10 10 0 20 7 23 15 7 16 39 20
49 6z m-1165 -8 c0 -5 -9 -21 -20 -38 -22 -33 -27 -21 -8 20 10 23 28 34 28
18z m1785 -45 c12 -11 -42 0 -65 14 -10 6 -3 7 20 2 19 -3 40 -10 45 -16z
m-2432 -10 c-4 -7 -8 -17 -8 -23 -1 -5 -6 -9 -12 -8 -6 1 -10 -5 -9 -15 1 -11
-8 -18 -22 -20 -12 -2 -20 -8 -17 -13 8 -12 -15 -81 -32 -95 -7 -6 -11 -13 -9
-15 3 -2 -7 -5 -21 -6 l-25 -1 30 31 c41 44 59 80 42 85 -7 3 5 22 31 48 41
42 70 59 52 32z m662 -19 c-9 -17 -19 -28 -22 -25 -6 6 23 56 32 56 3 0 -2
-14 -10 -31z m1675 11 c0 -5 -4 -10 -9 -10 -6 0 -13 5 -16 10 -3 6 1 10 9 10
9 0 16 -4 16 -10z m0 -76 c0 -2 -9 -4 -20 -4 -11 0 -20 4 -20 9 0 5 9 7 20 4
11 -3 20 -7 20 -9z m-2443 -148 c-10 -14 -12 -27 -6 -33 5 -5 -9 -23 -39 -44
-61 -47 -72 -52 -72 -39 0 6 11 15 24 20 24 9 44 30 29 30 -5 0 -15 -6 -23
-12 -7 -7 4 9 25 35 47 59 94 92 62 43z m-8 -82 c-12 -15 -11 -16 11 -10 l25
7 -25 -21 c-53 -44 -135 -100 -147 -100 -12 0 74 90 86 90 3 0 17 12 30 25 26
28 41 34 20 9z m135 -18 c-4 -11 -45 -36 -59 -36 -22 0 28 39 62 49 1 1 0 -5
-3 -13z m-88 -21 c-11 -8 -25 -15 -30 -15 -6 0 -2 7 8 15 11 8 25 15 30 15 6
0 2 -7 -8 -15z m214 -25 c-19 -13 -30 -13 -30 0 0 6 10 10 23 10 18 0 19 -2 7
-10z m-428 -142 c-7 -7 -12 -8 -12 -2 0 14 12 26 19 19 2 -3 -1 -11 -7 -17z
m1103 -18 c-7 12 -6 13 7 3 8 -7 18 -9 22 -5 4 4 6 1 4 -7 -3 -13 17 -22 59
-25 11 0 19 -4 17 -8 -3 -4 6 -12 18 -19 32 -17 128 -118 128 -135 0 -8 4 -14
9 -14 12 0 54 -90 55 -117 0 -13 4 -23 10 -23 11 0 1 -12 -11 -12 -4 0 -17 -5
-28 -11 -23 -13 -145 -17 -145 -5 0 4 -13 8 -30 8 -16 0 -30 5 -30 11 0 6 -9
9 -20 6 -12 -3 -18 -1 -14 5 4 6 -6 8 -25 5 -17 -3 -30 -2 -30 1 4 30 -3 44
-20 39 -14 -3 -18 -1 -14 9 3 8 -2 17 -11 20 -13 5 -14 9 -4 21 10 12 9 14 -8
11 -14 -2 -18 2 -16 15 2 10 -3 16 -10 15 -7 -2 -12 4 -10 14 1 9 -2 19 -7 23
-13 7 -3 34 22 62 11 13 17 26 14 30 -4 3 -2 12 3 19 6 6 9 16 8 22 -2 5 6 19
17 30 15 15 23 17 34 8 12 -9 13 -8 6 4z m-1120 -50 c-10 -11 -20 -18 -23 -15
-3 3 3 14 13 25 10 11 20 18 23 15 3 -3 -3 -14 -13 -25z m-11 -79 c-8 -16 -22
-35 -32 -42 -15 -12 -16 -12 -6 1 5 8 18 27 27 43 23 36 29 35 11 -2z m211 -1
c-9 -16 -20 -30 -26 -30 -5 0 -3 14 6 30 9 17 20 30 26 30 5 0 3 -13 -6 -30z
m63 -6 c4 -5 43 -9 87 -9 88 1 130 -9 119 -27 -4 -7 -3 -8 4 -4 12 7 72 -22
72 -34 0 -4 10 -17 23 -30 12 -14 22 -28 22 -32 0 -5 14 -19 30 -33 22 -18 25
-24 13 -25 -9 0 -18 -5 -20 -10 -2 -6 -21 1 -43 16 l-40 26 33 -31 c18 -18 43
-31 58 -31 14 0 23 -4 19 -9 -3 -5 -1 -12 4 -16 6 -3 8 -12 5 -19 -3 -8 10
-26 32 -42 21 -16 56 -48 80 -71 23 -24 48 -43 55 -43 7 0 5 -8 -7 -22 -10
-12 -14 -18 -7 -14 14 8 60 -19 73 -44 8 -14 5 -17 -18 -13 -15 1 -20 0 -12
-3 8 -4 47 -29 85 -55 39 -27 85 -54 103 -60 39 -13 118 -109 99 -121 -7 -4
-30 13 -58 43 -40 44 -49 48 -70 40 -13 -5 -23 -16 -23 -25 2 -19 -24 -23 -91
-15 -38 5 -100 66 -86 83 7 9 7 16 -1 24 -9 9 -9 12 0 12 9 0 9 6 1 23 -10 23
-39 33 -39 15 0 -5 -5 -6 -11 -3 -6 4 -8 14 -5 22 3 8 2 12 -2 9 -4 -2 -14 -1
-22 5 -12 7 -11 9 5 9 12 1 -1 12 -35 29 -30 15 -59 25 -65 20 -5 -4 -20 1
-32 11 -19 15 -20 19 -7 24 13 5 14 9 4 21 -7 8 -18 15 -26 15 -22 0 -54 42
-54 72 0 16 -4 27 -9 24 -5 -4 -21 8 -35 25 -14 17 -26 27 -26 23 0 -4 -20 14
-45 40 -25 27 -45 45 -45 40 0 -4 -9 1 -20 11 -15 14 -20 15 -21 4 0 -8 -6 -3
-12 11 -7 14 -19 25 -27 25 -18 0 -21 46 -4 52 7 2 25 -9 40 -25 32 -31 64
-47 64 -32 0 6 -4 10 -9 10 -16 0 -41 31 -41 51 0 13 7 19 21 19 19 0 20 2 8
16 -8 10 -15 12 -17 5 -2 -6 -8 -9 -13 -5 -5 3 -9 1 -9 -4 0 -5 -13 -12 -29
-14 -22 -3 -32 1 -41 16 -10 21 -10 21 -6 -1 3 -15 0 -20 -10 -16 -15 5 -18
22 -8 46 6 16 31 17 42 1z m-491 -21 c-20 -2 -52 -2 -70 0 -17 2 0 4 38 4 39
0 53 -2 32 -4z m169 -145 c4 -7 3 -8 -4 -4 -7 4 -12 2 -12 -3 0 -6 -18 -10
-42 -9 -41 1 -41 1 -8 5 19 3 39 9 45 14 12 11 12 11 21 -3z m458 -66 c2 -4 1
-13 -3 -20 -4 -8 -11 -5 -19 8 -10 16 -10 20 2 20 8 0 17 -4 20 -8z m38 -64
c-7 -7 -12 -8 -12 -2 0 14 12 26 19 19 2 -3 -1 -11 -7 -17z m33 2 c3 -5 1 -10
-4 -10 -6 0 -11 5 -11 10 0 6 2 10 4 10 3 0 8 -4 11 -10z m199 -193 l28 -24
-26 1 c-14 1 -29 6 -33 10 -4 5 -2 6 5 2 15 -9 16 6 0 22 -21 21 -2 13 26 -11z
m2753 -68 c-17 -39 -60 -83 -77 -77 -6 2 10 29 37 59 26 31 49 55 51 54 2 -2
-3 -18 -11 -36z m-3292 -129 c43 -23 84 -39 91 -36 26 10 14 -31 -12 -42 -14
-7 -23 -8 -20 -3 7 10 -37 41 -58 41 -8 0 -22 10 -31 23 -8 12 -19 20 -23 19
-4 -2 -23 16 -42 40 -24 30 -27 36 -9 21 14 -13 60 -41 104 -63z m2985 55 c0
-4 -7 -20 -16 -37 -16 -30 -15 -31 5 -25 30 8 26 -8 -9 -33 -29 -21 -35 -18
-31 17 3 26 32 83 41 83 6 0 10 -2 10 -5z m323 -26 c-20 -21 -110 -45 -122
-33 -3 3 7 17 23 31 21 18 37 23 56 20 14 -3 32 -2 40 3 24 15 25 1 3 -21z
m107 -58 c0 -13 -28 -22 -35 -11 -3 4 1 11 7 13 20 8 28 8 28 -2z m-2536 -37
c17 -16 39 -54 33 -54 -2 0 -17 11 -33 25 -16 14 -24 25 -19 25 6 0 3 5 -5 10
-9 6 -10 10 -3 10 6 0 19 -7 27 -16z m2156 -34 c-25 -16 -49 -30 -53 -30 -19
0 1 24 33 42 55 29 69 21 20 -12z m-3430 -40 c27 -54 34 -60 63 -61 30 -2 30
-2 5 -6 -29 -4 -36 -17 -17 -29 8 -4 7 -9 -2 -15 -24 -15 -36 -10 -49 21 -7
17 -27 55 -45 85 -32 52 -31 62 2 64 7 1 26 -26 43 -59z m1425 50 c3 -5 2 -10
-4 -10 -5 0 -13 5 -16 10 -3 6 -2 10 4 10 5 0 13 -4 16 -10z m-1272 -14 c19
-5 27 -12 23 -21 -2 -7 -2 -15 2 -17 4 -2 21 -30 38 -64 l31 -60 -63 -10 c-35
-5 -60 -6 -55 -1 5 5 -2 35 -15 68 -13 32 -24 61 -24 64 0 3 17 6 38 6 22 1
29 3 17 6 -44 12 -66 23 -60 33 4 6 14 9 23 6 10 -2 30 -7 45 -10z m589 -45
c177 -67 253 -106 283 -145 21 -28 35 -36 59 -36 17 0 90 -27 161 -61 72 -33
123 -53 115 -44 -9 8 -69 39 -135 69 -66 30 -121 59 -123 65 -11 32 239 -97
327 -169 l73 -60 42 44 c50 55 134 94 224 108 37 5 108 18 157 29 50 10 140
28 202 39 l112 21 78 -60 c101 -78 229 -173 320 -237 l73 -51 -172 -7 c-582
-23 -571 -22 -672 -81 -43 -25 -96 -77 -110 -107 -5 -10 -7 -10 -12 0 -20 43
-79 114 -129 154 -76 61 -168 109 -285 146 -52 17 -219 71 -370 121 -152 50
-279 91 -283 91 -11 0 -48 -80 -42 -90 3 -6 -1 -10 -10 -10 -9 0 -13 -4 -10
-10 3 -5 0 -10 -7 -10 -10 0 -10 -2 1 -9 11 -7 9 -10 -8 -16 -13 -4 -20 -9
-17 -12 5 -5 -38 -53 -48 -53 -2 0 -7 19 -11 43 -4 23 -18 75 -31 116 l-24 75
30 31 c16 17 30 38 30 46 0 9 11 21 25 27 14 7 28 20 32 29 5 15 41 52 50 53
2 0 49 -18 105 -39z m-449 -28 c-7 -2 -21 -2 -30 0 -10 3 -4 5 12 5 17 0 24
-2 18 -5z m1147 -47 c0 -34 -16 -41 -31 -15 -9 17 -8 23 2 30 22 14 29 10 29
-15z m-1045 -33 c-1 -10 -7 -31 -14 -46 -6 -16 -9 -33 -6 -37 3 -5 -9 -17 -26
-26 -25 -12 -29 -18 -18 -25 11 -7 11 -9 -3 -9 -10 0 -18 4 -18 8 0 5 -42 3
-92 -5 -51 -8 -102 -12 -113 -11 -11 2 35 12 103 22 98 15 122 21 118 33 -7
17 17 66 45 94 23 23 26 24 24 2z m3448 -60 c-7 -2 -19 -2 -25 0 -7 3 -2 5 12
5 14 0 19 -2 13 -5z m-363 -34 c0 -5 -4 -9 -10 -9 -5 0 -10 7 -10 16 0 8 5 12
10 9 6 -3 10 -10 10 -16z m-3132 -76 c-16 -2 -40 -2 -55 0 -16 2 -3 4 27 4 30
0 43 -2 28 -4z m-98 -53 c-6 -12 -14 -19 -17 -17 -2 3 1 15 7 27 6 12 14 19
17 17 2 -3 -1 -15 -7 -27z m234 -129 c14 -12 16 -10 16 10 0 19 2 21 9 9 6 -8
8 -17 5 -21 -2 -4 3 -9 11 -13 29 -11 15 -26 -24 -26 -43 0 -51 11 -50 63 0
27 2 29 9 12 4 -12 15 -27 24 -34z m2661 28 c20 -12 34 -23 32 -25 -3 -3 -145
19 -222 35 -33 7 -22 9 57 10 82 1 102 -2 133 -20z m-2698 -69 c4 -14 14 -20
34 -20 42 0 41 -36 -1 -45 -31 -7 -42 -25 -15 -25 13 0 11 -9 -10 -45 -15 -24
-24 -49 -21 -54 3 -5 -1 -12 -10 -15 -8 -3 -12 -10 -9 -16 3 -5 3 -10 -2 -10
-12 0 -32 -50 -26 -66 3 -8 1 -14 -4 -14 -6 0 -26 37 -46 83 -55 127 -55 122
-1 146 37 17 45 25 41 41 -3 11 -1 22 4 25 4 3 6 12 2 20 -4 11 3 15 27 15 23
0 33 -5 37 -20z m2914 -9 c57 -15 141 -36 187 -46 46 -10 85 -22 88 -27 7 -11
-77 -1 -186 23 -160 34 -207 39 -260 26 -37 -9 -50 -16 -50 -29 0 -12 8 -18
21 -18 11 0 17 -4 14 -10 -3 -5 -1 -10 4 -10 6 0 10 -5 9 -12 -4 -15 208 -77
277 -80 29 -2 51 -6 48 -10 -6 -10 0 -10 34 2 l28 10 -24 -19 c-14 -10 -30
-17 -37 -14 -7 2 -15 0 -18 -6 -5 -7 -15 -7 -33 0 -27 10 -108 30 -133 33 -9
1 -20 4 -25 8 -6 3 -45 13 -88 23 -67 16 -80 16 -88 4 -7 -12 -9 -11 -9 3 0
19 -87 43 -121 33 -14 -5 -19 -3 -15 3 6 10 -22 24 -40 21 -54 -9 -59 26 -6
39 20 6 89 22 152 37 63 15 122 31 130 36 22 12 27 12 141 -20z m-184 -47 c-3
-3 -12 -4 -19 -1 -8 3 -5 6 6 6 11 1 17 -2 13 -5z m-2913 -39 c4 -13 -2 -14
-37 -9 -104 15 -115 22 -41 23 56 1 73 -2 78 -14z m2549 -71 c47 -9 53 -15 63
-64 8 -36 7 -50 -1 -50 -17 0 -34 21 -28 36 3 8 -1 14 -9 14 -17 0 -98 60 -98
73 0 5 12 6 28 2 15 -4 35 -9 45 -11z m219 -170 c97 -29 122 -44 72 -44 -17 0
-23 -4 -18 -12 6 -10 4 -10 -7 0 -20 18 -31 14 -19 -7 13 -25 13 -42 -1 -18
-6 11 -22 17 -43 17 -19 0 -54 11 -77 25 -24 14 -51 25 -60 25 -8 0 -26 12
-40 26 l-24 27 60 -6 c33 -2 104 -18 157 -33z m-214 9 c2 -8 -5 -13 -17 -13
-11 0 -23 -4 -26 -10 -3 -5 -19 -8 -34 -6 -16 2 -46 0 -68 -4 l-38 -8 45 -1
c36 -1 41 -4 28 -12 -26 -15 -22 -27 10 -32 15 -2 5 -4 -23 -5 -36 0 -44 2
-30 8 18 8 17 9 -8 9 -16 1 -26 -3 -22 -9 4 -6 -10 -10 -34 -10 -22 0 -46 -6
-53 -13 -6 -8 -21 -12 -33 -9 -12 2 -27 -4 -34 -12 -8 -9 -20 -16 -28 -16 -8
0 -12 -4 -9 -8 2 -4 -4 -8 -14 -8 -10 0 -17 4 -14 8 2 4 -2 10 -10 15 -7 4
-21 25 -29 45 -15 36 -15 38 4 39 38 3 44 2 61 -5 10 -5 32 -3 49 3 22 8 36 8
45 1 8 -8 14 -8 19 0 4 6 20 8 42 4 33 -6 35 -6 24 15 -11 19 -9 21 16 22 15
0 48 7 73 14 54 16 102 15 108 -2z m-968 -146 l0 -27 -47 24 c-27 14 -57 28
-68 31 -18 7 -17 8 9 17 16 6 40 17 55 24 24 13 27 12 38 -14 7 -15 12 -39 13
-55z m280 43 c0 -5 -12 -10 -27 -9 -25 0 -26 1 -8 9 27 12 35 12 35 0z m-420
-12 c0 -5 -11 -8 -25 -8 -14 0 -25 4 -25 9 0 5 11 8 25 7 14 0 25 -4 25 -8z
m1235 2 c3 -5 2 -10 -4 -10 -5 0 -13 5 -16 10 -3 6 -2 10 4 10 5 0 13 -4 16
-10z m-2762 -17 c-13 -2 -33 -2 -45 0 -13 2 -3 4 22 4 25 0 35 -2 23 -4z m990
-40 c-7 -2 -19 -2 -25 0 -7 3 -2 5 12 5 14 0 19 -2 13 -5z m160 -20 c-7 -2
-21 -2 -30 0 -10 3 -4 5 12 5 17 0 24 -2 18 -5z"/>
<path d="M2533 3258 c-20 -26 -26 -41 -15 -34 12 7 36 46 29 46 -3 0 -9 -6
-14 -12z"/>
<path d="M2534 3208 c-11 -13 -26 -32 -34 -43 -12 -17 -11 -17 11 3 14 12 30
22 36 22 6 0 16 7 23 15 11 13 10 14 -5 9 -13 -5 -16 -4 -11 4 12 19 1 14 -20
-10z"/>
<path d="M2487 3203 c-4 -3 -7 -11 -7 -17 0 -6 5 -5 12 2 6 6 9 14 7 17 -3 3
-9 2 -12 -2z"/>
<path d="M2580 3195 c-7 -8 -20 -15 -29 -16 -12 0 -11 -2 4 -8 12 -5 25 -3 33
6 7 7 18 13 23 13 5 0 9 5 9 10 0 15 -26 12 -40 -5z"/>
<path d="M1780 3131 c-29 -5 -36 -11 -38 -34 -2 -16 -1 -36 3 -44 5 -14 10
-12 31 8 27 25 60 80 47 78 -5 -1 -24 -4 -43 -8z"/>
<path d="M1420 2815 c46 -18 57 -18 64 0 4 12 -4 15 -47 14 l-52 -1 35 -13z"/>
<path d="M917 2835 c-21 -7 -41 -16 -44 -19 -12 -12 23 -4 67 14 52 22 34 26
-23 5z"/>
<path d="M810 2750 c-8 -5 -10 -10 -5 -10 6 0 17 5 25 10 8 5 11 10 5 10 -5 0
-17 -5 -25 -10z"/>
<path d="M900 2620 c-9 -6 -10 -10 -3 -10 6 0 15 5 18 10 8 12 4 12 -15 0z"/>
<path d="M1910 2391 c0 -5 5 -13 10 -16 6 -3 10 -2 10 4 0 5 -4 13 -10 16 -5
3 -10 2 -10 -4z"/>
<path d="M525 2280 c-3 -5 -2 -10 4 -10 5 0 13 5 16 10 3 6 2 10 -4 10 -5 0
-13 -4 -16 -10z"/>
<path d="M1515 1700 c3 -5 8 -10 11 -10 2 0 4 5 4 10 0 6 -5 10 -11 10 -5 0
-7 -4 -4 -10z"/>
<path d="M775 1831 c-3 -6 4 -15 15 -21 20 -11 21 -10 10 9 -12 23 -16 25 -25
12z"/>
<path d="M830 1791 c0 -10 19 -25 25 -20 1 2 -3 10 -11 17 -8 7 -14 8 -14 3z"/>
<path d="M780 1716 c0 -9 5 -16 10 -16 6 0 10 4 10 9 0 6 -4 13 -10 16 -5 3
-10 -1 -10 -9z"/>
<path d="M810 1711 c0 -9 48 -36 54 -30 3 2 -9 12 -25 21 -16 9 -29 14 -29 9z"/>
<path d="M897 1669 c7 -7 15 -10 18 -7 3 3 -2 9 -12 12 -14 6 -15 5 -6 -5z"/>
<path d="M996 1628 c10 -14 21 -24 23 -22 3 3 -6 15 -18 27 l-24 22 19 -27z"/>
<path d="M925 1540 c3 -5 11 -10 16 -10 6 0 7 5 4 10 -3 6 -11 10 -16 10 -6 0
-7 -4 -4 -10z"/>
</g>
</svg>
